<svg version="1.1" id="Layer_1" xmlns="http://www.w3.org/2000/svg" xmlns:xlink="http://www.w3.org/1999/xlink" x="0px" y="0px"
	 width="100%" viewBox="0 0 800 1008" enable-background="new 0 0 800 1008" xml:space="preserve">
<path fill="#000000" opacity="1.000000" stroke="none" 
	d="
M512.083252,214.985474 
	C506.408844,223.441559 500.839142,231.532883 495.479736,239.761154 
	C493.762573,242.397568 492.014435,243.336212 488.889130,242.249390 
	C485.815063,241.180420 483.635193,240.088150 483.664886,236.177582 
	C483.706268,230.733170 484.200043,225.210983 482.565247,218.481766 
	C478.817505,223.801117 475.534180,228.199265 472.552368,232.793106 
	C470.800903,235.491440 469.110107,236.847763 465.628448,235.665680 
	C462.387146,234.565216 460.627838,233.187744 460.591278,229.434677 
	C460.505524,220.622620 459.974762,211.815475 459.687042,203.004303 
	C459.628693,201.216904 459.325470,199.348389 460.273590,197.686554 
	C467.552155,197.991150 468.160187,198.666901 468.386414,205.309586 
	C468.567200,210.618073 469.014038,215.917526 469.449280,222.938828 
	C473.115265,217.687210 475.841522,213.526031 478.841888,209.572891 
	C480.863800,206.908936 481.702026,202.730927 487.056885,204.338516 
	C492.270142,205.903580 491.106903,209.670044 491.290924,213.135834 
	C491.554413,218.098267 490.814728,223.125656 492.494171,228.848892 
	C496.502869,223.032440 500.284607,217.738510 503.843201,212.298630 
	C505.568451,209.661316 507.713776,210.196747 509.958130,210.959030 
	C511.640900,211.530579 513.816467,212.002975 512.083252,214.985474 
z"/>
<path fill="#000000" opacity="1.000000" stroke="none" 
	d="
M302.456055,742.405945 
	C299.390656,748.548218 296.547363,754.387695 293.558105,760.151367 
	C292.717560,761.771973 292.433197,764.529236 289.675079,763.843811 
	C286.866638,763.145813 284.389587,761.720825 284.136505,758.251038 
	C283.700806,752.277344 283.220917,746.306885 282.742889,740.336365 
	C282.690826,739.686340 282.529602,739.045044 282.229370,737.293213 
	C276.309937,741.125610 270.786682,744.604614 265.375824,748.250366 
	C263.087219,749.792480 261.091278,750.332703 258.538727,748.701294 
	C256.458496,747.371826 255.803741,746.073486 256.939301,743.811707 
	C261.271912,735.181885 265.599182,726.548340 269.800110,717.854126 
	C271.256317,714.840332 273.091980,715.910217 275.098206,716.922607 
	C277.162689,717.964233 278.924530,718.976074 277.405060,721.843445 
	C275.173431,726.054749 273.171265,730.387695 270.475494,735.883606 
	C275.107941,732.969666 278.566284,730.756714 282.062042,728.604553 
	C286.909149,725.620483 288.665955,726.469238 289.873260,732.117798 
	C290.708038,736.023804 289.628906,740.145874 291.557495,744.587463 
	C293.744690,740.328125 295.844879,736.510681 297.681488,732.570496 
	C299.013824,729.712097 300.759155,729.662476 303.288055,730.904480 
	C305.741669,732.109497 307.173401,733.386353 305.493591,736.255188 
	C304.403473,738.116943 303.570862,740.129456 302.456055,742.405945 
z"/>
<path fill="#000000" opacity="1.000000" stroke="none" 
	d="
M174.072739,360.358582 
	C173.788696,363.770691 171.722214,364.297150 169.145874,364.431763 
	C165.160187,364.640076 161.186157,365.072632 157.208450,365.424591 
	C157.088379,365.435211 156.982544,365.606750 156.394913,366.111084 
	C160.440903,368.324432 164.264557,370.519958 168.186127,372.523895 
	C170.683914,373.800323 171.105255,375.307648 169.672119,377.718689 
	C168.308411,380.012909 167.256119,382.095062 163.977890,380.217834 
	C155.739426,375.500244 147.400391,370.958588 139.114899,366.322723 
	C137.789902,365.581390 136.375092,364.746490 137.089798,362.850128 
	C137.992935,360.453888 139.119659,358.113159 142.140701,357.989075 
	C146.633942,357.804626 151.135239,357.823761 155.629974,357.666626 
	C158.068863,357.581329 160.633499,357.931763 163.297485,355.836548 
	C160.122070,350.449585 156.925125,345.053467 153.759186,339.639221 
	C152.753708,337.919647 151.725998,336.280701 152.794647,334.061493 
	C154.154816,331.236938 155.551163,329.763611 158.901199,331.672333 
	C167.004807,336.289398 175.213394,340.727722 183.463684,345.078796 
	C186.202591,346.523224 185.831024,348.105103 184.609436,350.320007 
	C183.345657,352.611389 182.234146,354.240326 179.243805,352.508087 
	C175.118484,350.118408 170.817261,348.032349 165.914948,345.461487 
	C168.864990,350.750153 171.434143,355.355927 174.072739,360.358582 
z"/>
<path fill="#000000" opacity="1.000000" stroke="none" 
	d="
M228.913422,714.047241 
	C230.679199,713.080017 232.145401,712.331177 233.859909,711.455627 
	C233.700577,710.335938 233.513107,709.225586 233.388443,708.108276 
	C232.668640,701.657288 238.563141,696.192078 244.759872,698.075195 
	C252.863922,700.537903 258.982422,706.475281 265.777527,711.190308 
	C267.423096,712.332153 266.611786,713.747681 265.670837,715.078003 
	C260.109711,722.940491 254.564560,730.814514 249.066162,738.720886 
	C247.699951,740.685425 246.358704,741.394348 244.184067,739.743347 
	C239.556915,736.230103 234.630554,733.088562 230.177429,729.374329 
	C224.597336,724.720154 224.283295,719.875793 228.913422,714.047241 
M249.045654,717.136719 
	C253.910004,719.791504 253.786484,715.264771 255.506836,713.018738 
	C252.992599,710.303711 250.178955,708.570435 247.262512,707.000793 
	C245.501114,706.052917 243.737259,705.997070 242.289719,707.644470 
	C240.642029,709.519653 241.715759,711.128174 243.077927,712.413513 
	C244.755219,713.996277 246.668137,715.329346 249.045654,717.136719 
M244.976212,728.582275 
	C245.805176,727.390381 247.087662,726.428467 246.929794,724.608826 
	C244.875778,722.276550 242.324188,720.502014 239.328094,719.431458 
	C238.033005,718.968750 236.707047,719.142090 235.671997,720.238708 
	C234.796494,721.166138 234.284576,722.397644 235.116760,723.369812 
	C237.603363,726.274780 239.795166,729.829651 244.976212,728.582275 
z"/>
<path fill="#000000" opacity="1.000000" stroke="none" 
	d="
M641.713135,377.274048 
	C639.602661,373.670532 640.730774,372.010559 644.141907,370.637604 
	C652.320190,367.345886 660.393982,363.780853 668.413025,360.114227 
	C671.350647,358.770996 672.965759,359.223389 674.121704,362.299652 
	C675.758911,366.656891 677.820312,370.856171 679.422974,375.224701 
	C683.668274,386.796631 680.176514,391.631409 667.804016,391.284058 
	C666.201782,395.691589 663.606628,399.195282 658.332275,399.333710 
	C652.748474,399.480255 650.064331,395.543945 647.928589,391.298767 
	C645.688293,386.845764 643.850830,382.190155 641.713135,377.274048 
M660.710083,385.593079 
	C659.846191,382.039276 658.592896,378.662628 656.475037,375.725250 
	C649.626770,377.459930 649.528748,377.629547 652.097839,383.559235 
	C652.692688,384.932220 653.327454,386.293274 654.035400,387.610565 
	C654.843506,389.114075 655.881592,390.624329 657.807678,390.361755 
	C659.966553,390.067413 660.749390,388.414581 660.710083,385.593079 
M664.090515,372.379761 
	C663.248962,375.833771 665.528809,378.279541 666.976929,380.941071 
	C667.838074,382.523651 669.436829,383.226898 671.215210,382.405731 
	C672.802856,381.672638 673.087402,380.113861 672.801270,378.589783 
	C672.227173,375.531433 671.220703,372.622772 669.109192,369.839935 
	C667.500610,370.571350 666.026123,371.241760 664.090515,372.379761 
z"/>
<path fill="#000000" opacity="1.000000" stroke="none" 
	d="
M573.328552,714.646667 
	C570.426392,711.181702 567.683838,708.043884 565.119629,704.766541 
	C563.986145,703.317749 561.405701,702.065308 562.872925,699.805908 
	C564.434570,697.401062 566.689514,695.843323 570.062439,696.512268 
	C576.893921,697.867126 583.784729,698.922913 591.299744,700.213501 
	C589.114624,695.232727 585.349854,692.195190 582.492188,688.526367 
	C580.817078,686.375671 579.944214,684.820374 582.590393,682.757751 
	C584.856689,680.991394 586.683716,679.299927 589.226624,682.401245 
	C595.243530,689.739502 601.407166,696.957397 607.481384,704.248901 
	C608.319885,705.255493 609.416077,706.475464 608.268188,707.780945 
	C606.380310,709.928284 604.278870,711.867859 600.997070,711.213501 
	C595.131958,710.043884 589.260681,708.905396 583.394775,707.739624 
	C582.422241,707.546326 581.464966,707.170715 580.124878,707.916382 
	C582.073669,712.156006 585.578308,715.235291 588.484802,718.676514 
	C590.713623,721.315369 590.743530,722.869080 588.012512,725.172668 
	C585.280701,727.476929 583.595337,727.249146 581.532898,724.526917 
	C579.021912,721.212708 576.230713,718.110840 573.328552,714.646667 
z"/>
<path fill="#000000" opacity="1.000000" stroke="none" 
	d="
M632.449341,642.604248 
	C630.692566,641.585083 629.162903,640.872559 627.826111,639.896057 
	C626.206238,638.712891 623.158142,638.436157 623.799377,635.558228 
	C624.439941,632.683716 626.263123,630.533386 629.519165,630.019470 
	C635.597900,629.060181 641.662842,628.013733 647.731750,626.992432 
	C648.659973,626.836243 649.578369,626.621094 651.500916,626.229675 
	C647.171753,623.619995 643.686646,621.474243 640.156494,619.405396 
	C637.348206,617.759521 634.586243,616.580872 637.093994,612.230957 
	C639.564575,607.945557 641.850342,610.043274 644.392029,611.533936 
	C651.431580,615.662354 658.472534,619.790039 665.445190,624.029419 
	C667.008301,624.979858 669.842896,625.375427 669.100708,628.020630 
	C668.398132,630.524597 667.145081,632.944397 663.909363,633.425964 
	C658.153381,634.282471 652.425171,635.328369 646.691223,636.328308 
	C645.392456,636.554932 644.117432,636.917847 642.277161,637.347290 
	C645.890381,640.895203 650.232483,642.505981 654.038879,644.885925 
	C656.685059,646.540405 657.922974,648.024658 655.943665,651.252869 
	C654.077148,654.297058 652.335266,654.521729 649.507141,652.763123 
	C643.991638,649.333496 638.350830,646.105347 632.449341,642.604248 
z"/>
<path fill="#000000" opacity="1.000000" stroke="none" 
	d="
M182.301758,685.653198 
	C178.976898,681.479126 175.470062,677.868042 173.885635,672.948792 
	C171.567612,665.751953 173.509720,658.987061 179.407822,654.113220 
	C185.240097,649.293762 192.435654,648.562561 198.940292,652.360046 
	C205.605225,656.250916 209.622559,662.754028 214.386932,668.503662 
	C215.697052,670.084717 214.751389,671.293762 213.524261,672.326660 
	C206.135208,678.546143 198.716385,684.730408 191.342407,690.967590 
	C189.465225,692.555359 187.922424,692.725159 186.358963,690.538452 
	C185.199905,688.917297 183.814056,687.458374 182.301758,685.653198 
M203.365662,668.332886 
	C202.967239,665.644226 200.788574,664.139709 199.184372,662.319763 
	C196.312943,659.062256 192.655594,657.569031 188.455460,659.405212 
	C184.455032,661.154236 181.384216,664.035095 181.406601,668.773987 
	C181.429688,673.654053 184.543991,677.027954 187.936676,680.051636 
	C189.028412,681.024536 190.138290,680.034424 191.020081,679.286926 
	C195.068192,675.855286 199.089294,672.391785 203.365662,668.332886 
z"/>
<path fill="#000000" opacity="1.000000" stroke="none" 
	d="
M147.000214,551.791748 
	C153.818375,556.460388 155.133347,563.732666 157.197891,570.533569 
	C160.019257,579.827576 160.778275,578.767273 151.308258,581.487915 
	C144.267715,583.510620 137.160126,585.321472 130.193329,587.570312 
	C126.691666,588.700562 124.837120,587.968689 123.961594,584.385559 
	C122.895432,580.022095 121.627136,575.708435 120.513428,571.356079 
	C118.588890,563.835022 120.418610,557.221497 126.611397,552.623840 
	C132.816742,548.016785 139.747726,547.142761 147.000214,551.791748 
M134.432648,558.540649 
	C127.401367,562.397583 125.390266,569.841736 129.621735,576.209412 
	C130.239517,577.139221 131.047089,577.797302 132.069946,577.477417 
	C137.824158,575.677795 143.953049,574.967957 149.279480,572.132446 
	C147.232101,560.453979 144.465698,557.825195 134.432648,558.540649 
z"/>
<path fill="#000000" opacity="1.000000" stroke="none" 
	d="
M177.286194,649.355469 
	C172.712952,652.140259 168.455032,654.742615 164.196060,657.343201 
	C162.708496,658.251526 161.048828,659.159912 159.878708,657.148743 
	C156.217300,650.855469 151.360886,645.158508 149.713745,637.832153 
	C148.066452,630.505066 150.954468,623.546692 157.043365,619.678589 
	C163.609848,615.507080 171.059448,615.587891 177.120621,620.186707 
	C183.434052,624.977051 186.254776,632.337463 190.255203,638.807373 
	C191.513474,640.842346 189.617538,641.796936 188.243210,642.662109 
	C184.724304,644.877441 181.152039,647.007935 177.286194,649.355469 
M176.209961,630.266113 
	C174.838058,628.299072 173.040802,626.902649 170.775909,626.073853 
	C166.751816,624.601379 161.472473,626.403198 158.960526,630.150696 
	C156.204605,634.262207 157.120789,640.972229 161.534546,645.254456 
	C165.126297,648.739197 167.264267,644.016968 170.060913,643.088135 
	C171.599960,642.577026 172.941101,641.454102 174.352036,640.575806 
	C180.297211,636.874939 180.294495,636.870605 176.209961,630.266113 
z"/>
<path fill="#000000" opacity="1.000000" stroke="none" 
	d="
M486.825043,744.137939 
	C488.090668,745.007812 488.999359,745.775513 490.037750,746.271790 
	C492.058990,747.237732 494.043823,746.602783 495.698181,745.444641 
	C497.488861,744.190979 496.524567,742.391663 495.903839,740.917603 
	C494.588135,737.793579 494.781036,735.836853 498.604340,734.586487 
	C502.467224,733.323120 503.604004,735.036560 504.610321,738.142151 
	C507.324768,746.519226 510.165771,754.855957 513.027344,763.184387 
	C513.939270,765.838318 513.630127,767.594849 510.559601,768.447327 
	C506.240173,769.646301 502.015259,771.181335 497.713715,772.450012 
	C492.176422,774.083191 487.006897,773.422180 483.203247,768.755188 
	C479.224945,763.873962 478.782471,758.514282 482.347260,753.069763 
	C482.608582,752.670654 482.721283,752.174194 482.900391,751.729614 
	C480.542511,748.450439 476.245514,747.351807 473.897766,743.734192 
	C478.431610,740.428467 482.512726,739.953247 486.825043,744.137939 
M499.715698,753.429504 
	C496.312653,752.543945 493.625153,754.291931 491.049561,756.009583 
	C489.199646,757.243286 488.926025,759.305054 489.509949,761.373169 
	C490.109406,763.496460 491.575928,764.664490 493.794922,764.937317 
	C500.587799,765.772461 503.360260,762.478699 501.088470,756.226135 
	C500.806885,755.451233 500.462555,754.699158 499.715698,753.429504 
z"/>
<path fill="#000000" opacity="1.000000" stroke="none" 
	d="
M624.995300,340.456299 
	C628.204590,329.063690 637.323120,322.838837 646.847229,325.184204 
	C657.571899,327.825226 664.604309,338.987640 662.058472,349.705658 
	C660.360413,356.855072 655.440552,361.412781 648.514954,362.885773 
	C641.237976,364.433594 634.574707,362.216034 629.843628,356.169037 
	C626.392029,351.757385 624.576050,346.604675 624.995300,340.456299 
M653.126099,348.543060 
	C655.356384,341.994812 653.000366,336.221771 647.356201,334.405182 
	C641.711182,332.588287 635.694519,335.649689 633.818848,341.293243 
	C632.336975,345.752106 634.353821,350.906494 638.501282,353.260162 
	C643.316956,355.993042 648.290344,354.570618 653.126099,348.543060 
z"/>
<path fill="#000000" opacity="1.000000" stroke="none" 
	d="
M244.667511,270.574341 
	C236.851471,263.526398 234.787521,256.420715 238.036469,248.601715 
	C241.202560,240.982132 249.905975,235.333237 257.752869,235.804962 
	C267.314697,236.379791 274.989868,244.198395 275.278320,253.657944 
	C275.564941,263.056732 267.242371,272.249786 257.418304,273.270447 
	C253.045959,273.724731 248.760956,273.444366 244.667511,270.574341 
M245.830566,256.698181 
	C248.025192,262.292175 251.899597,265.870819 256.070221,265.402924 
	C260.379822,264.919373 263.975342,262.888550 265.653473,258.519592 
	C267.357666,254.082809 265.847687,250.288422 262.766113,247.177307 
	C259.693359,244.075058 255.829544,243.291290 251.770508,245.146988 
	C247.183456,247.244064 245.190155,250.971375 245.830566,256.698181 
z"/>
<path fill="#000000" opacity="1.000000" stroke="none" 
	d="
M599.125244,312.179138 
	C607.203857,305.068970 615.178894,298.303284 623.159912,291.544708 
	C624.696167,290.243744 626.154724,290.246277 627.448975,291.904633 
	C630.923462,296.356812 634.738586,300.592743 637.760132,305.334106 
	C640.487976,309.614685 640.803894,314.552856 637.810974,319.007385 
	C634.925354,323.302429 630.851379,325.728973 625.478027,324.690582 
	C622.858826,324.184479 621.909302,325.323334 621.190186,327.540314 
	C620.342590,330.153687 620.190979,333.058136 618.448303,335.380096 
	C612.746460,331.942841 611.920898,330.223297 614.063171,323.520050 
	C615.405457,319.319855 615.231140,316.116211 611.015076,313.942017 
	C602.462402,319.088135 602.462402,319.088135 599.125244,312.179138 
M617.957642,308.557678 
	C618.773132,311.407745 620.723328,313.437347 623.083252,314.972076 
	C625.388184,316.471008 627.838013,316.346375 629.819885,314.233673 
	C631.569824,312.368195 632.121094,310.210175 630.501221,307.958771 
	C628.989929,305.858337 627.790649,303.462585 625.369812,302.010986 
	C622.682129,303.754272 620.023560,305.384094 617.957642,308.557678 
z"/>
<path fill="#000000" opacity="1.000000" stroke="none" 
	d="
M681.481628,399.052490 
	C690.494568,403.615326 694.712646,411.440735 693.495972,420.800385 
	C692.465271,428.729126 687.115173,434.642303 679.449341,436.325165 
	C671.939270,437.973907 664.847900,434.843384 660.235168,427.842834 
	C655.760925,421.052643 655.740356,411.106659 660.188354,405.273346 
	C665.092224,398.842224 672.775391,396.504272 681.481628,399.052490 
M684.523987,412.209595 
	C680.520935,407.081726 675.860168,405.704285 670.668030,408.114624 
	C666.466797,410.064941 664.117859,414.731842 665.083435,419.210175 
	C666.382202,425.233765 671.584229,428.776672 677.232788,427.484528 
	C684.153015,425.901489 686.976196,420.506561 684.523987,412.209595 
z"/>
<path fill="#000000" opacity="1.000000" stroke="none" 
	d="
M387.652710,203.615051 
	C392.906586,214.900711 388.976746,225.824966 378.505493,229.928848 
	C367.358337,234.297638 355.669556,229.440781 352.308563,219.043640 
	C349.514923,210.401627 353.057861,201.445511 360.899658,197.326508 
	C370.587372,192.237930 380.707794,194.512207 387.652710,203.615051 
M369.834656,223.626053 
	C374.870117,223.806915 378.754364,221.828079 380.278046,216.922531 
	C381.686920,212.386520 381.155182,207.853607 377.057526,204.730331 
	C373.240936,201.821335 369.004089,201.757065 364.968445,204.402695 
	C361.636780,206.586823 360.103577,209.946289 360.495605,213.825439 
	C361.014618,218.961609 363.879242,222.360672 369.834656,223.626053 
z"/>
<path fill="#000000" opacity="1.000000" stroke="none" 
	d="
M551.566650,261.672882 
	C548.336304,261.125732 547.739136,263.673248 546.664673,265.355560 
	C544.895386,268.125702 543.071533,267.557617 540.832764,266.083282 
	C538.657593,264.650848 537.178772,263.225769 538.984558,260.493683 
	C544.296265,252.457260 549.564209,244.391846 554.829224,236.324661 
	C555.898376,234.686462 557.213867,233.948105 558.973999,235.173752 
	C563.869507,238.582840 569.344116,241.225006 573.475037,245.654236 
	C580.796387,253.504425 577.306580,264.939911 566.766907,267.145386 
	C563.862366,267.753174 563.245728,268.883453 563.591553,271.472321 
	C563.937256,274.060211 564.553406,276.707428 563.365601,279.262756 
	C557.551575,278.402679 555.756226,276.513885 555.665344,271.122986 
	C555.604614,267.521637 556.425293,263.593750 551.566650,261.672882 
M556.764709,256.038513 
	C558.059143,256.772949 559.289307,257.672302 560.661560,258.206818 
	C563.357666,259.257019 565.890320,259.155731 567.647339,256.391968 
	C569.402405,253.631241 568.567261,251.285461 566.283447,249.368240 
	C564.417542,247.801926 562.583679,246.066940 559.680603,245.724808 
	C558.671692,247.183990 557.490540,248.587067 556.661804,250.174179 
	C555.779602,251.863632 553.327515,253.587067 556.764709,256.038513 
z"/>
<path fill="#000000" opacity="1.000000" stroke="none" 
	d="
M660.829956,610.960266 
	C655.891663,610.278564 654.938721,607.979614 657.246826,604.036987 
	C658.078796,602.615906 658.532288,600.975891 659.185974,599.447510 
	C661.460083,594.130798 661.250549,593.720703 654.900574,592.018799 
	C653.048523,596.324524 651.137512,600.694031 649.291077,605.090698 
	C648.356506,607.316101 647.341370,608.850952 644.460022,607.547424 
	C641.823242,606.354614 640.955933,604.979492 642.231018,602.147705 
	C644.892334,596.237488 647.394104,590.250671 649.782532,584.224487 
	C650.923645,581.345032 652.384094,580.360657 655.441956,581.709167 
	C663.958740,585.465149 672.535400,589.089417 681.142212,592.635010 
	C683.807678,593.733154 684.133057,595.322937 683.087097,597.727844 
	C680.501587,603.672607 677.939636,609.628723 675.465149,615.620239 
	C674.462646,618.047729 673.129456,619.060242 670.485107,617.858643 
	C667.998779,616.728882 667.373962,615.184387 668.532166,612.697876 
	C669.865112,609.836243 670.889160,606.826965 672.285889,603.999634 
	C674.263550,599.996521 672.966125,598.095520 668.580505,597.765930 
	C664.902405,601.413269 665.362549,607.481628 660.829956,610.960266 
z"/>
<path fill="#000000" opacity="1.000000" stroke="none" 
	d="
M197.108704,696.263428 
	C199.396286,693.584839 201.138580,694.982361 202.821045,696.515442 
	C206.007324,699.418762 209.163315,702.355286 212.270111,705.221069 
	C217.532547,701.761536 217.582260,701.443787 213.516083,697.550476 
	C212.313782,696.399231 211.036758,695.326233 209.797974,694.213013 
	C205.246704,690.122559 205.302917,689.381836 210.788925,685.529663 
	C214.410095,688.697815 218.117752,691.941589 221.849106,695.206116 
	C223.972214,694.022217 225.097260,692.448242 226.396240,690.761475 
	C223.366699,686.661377 219.461945,683.813354 215.963440,680.566162 
	C214.175339,678.906433 213.150284,677.387756 215.359116,675.164490 
	C217.219513,673.291992 218.777847,672.840637 220.851349,674.789917 
	C226.532898,680.131165 232.293213,685.388489 238.453445,691.077148 
	C235.914124,694.033447 233.740143,696.696838 231.425278,699.231567 
	C226.708694,704.395935 221.873642,709.452393 217.176392,714.634094 
	C215.366852,716.630188 213.844467,716.912170 211.758224,714.942017 
	C206.915146,710.368469 201.947922,705.924622 196.971222,701.495300 
	C195.042831,699.779053 194.957764,698.201538 197.108704,696.263428 
z"/>
<path fill="#000000" opacity="1.000000" stroke="none" 
	d="
M322.340332,745.427307 
	C318.354004,744.139709 314.728333,742.913269 311.072906,741.783325 
	C308.759216,741.068115 307.730408,739.880127 308.706726,737.360779 
	C309.606659,735.038513 310.739960,733.709412 313.526306,734.666992 
	C319.975006,736.883362 326.469025,738.969543 332.961121,741.057312 
	C335.510834,741.877258 336.321533,743.285461 335.406830,745.949829 
	C332.328033,754.917786 329.325287,763.913635 326.453888,772.949768 
	C325.624176,775.560913 324.071716,775.903992 321.882629,775.182495 
	C315.409271,773.048889 308.950378,770.871460 302.489441,768.700378 
	C300.334991,767.976440 299.777130,766.631470 300.546265,764.433472 
	C301.291046,762.304932 302.112213,760.745789 304.773193,761.637695 
	C308.242432,762.800476 311.738861,763.881958 315.210907,765.036560 
	C317.198700,765.697571 318.960297,766.378906 319.986542,763.496155 
	C321.055481,760.493469 319.399017,759.613586 317.125305,758.881287 
	C314.593231,758.065735 312.094177,757.142578 309.545197,756.386047 
	C306.876709,755.594055 306.227112,753.990784 307.108917,751.441772 
	C307.949310,749.012512 309.419861,748.508301 311.750977,749.361084 
	C314.561279,750.389221 317.474487,751.135864 320.285919,752.161255 
	C322.541504,752.983948 323.682281,752.125122 324.487122,750.069214 
	C325.333557,747.906982 325.473846,746.180298 322.340332,745.427307 
z"/>
<path fill="#000000" opacity="1.000000" stroke="none" 
	d="
M583.475342,261.502441 
	C588.494812,255.420685 588.480652,255.437103 593.968567,260.180298 
	C598.001526,263.666046 602.046509,267.139435 606.148865,270.542725 
	C608.048828,272.118958 609.124451,273.522980 607.079163,275.889038 
	C605.094788,278.184631 603.441956,278.184296 601.250732,276.212677 
	C597.932983,273.227356 594.434937,270.442444 591.002441,267.563110 
	C586.941040,270.284882 586.479309,272.691650 590.296631,275.467743 
	C592.176819,276.835144 593.810791,278.536011 595.631836,279.991272 
	C597.692566,281.638031 598.144043,283.207916 596.238525,285.417358 
	C594.271790,287.697662 592.727173,287.098389 590.784058,285.461914 
	C587.887329,283.022339 585.286499,280.165985 581.887085,278.424774 
	C579.873657,279.505463 578.567261,280.902100 577.607056,283.376343 
	C581.140625,286.419464 584.718018,289.606110 588.417419,292.644073 
	C590.449097,294.312561 591.046936,295.722839 589.054199,297.977570 
	C587.204102,300.070892 585.761780,300.252075 583.667908,298.406158 
	C578.794556,294.109894 573.892334,289.834839 568.812805,285.788361 
	C565.751831,283.349945 566.277649,281.395081 568.586243,278.817810 
	C573.586243,273.235992 578.382629,267.471741 583.475342,261.502441 
z"/>
<path fill="#000000" opacity="1.000000" stroke="none" 
	d="
M532.631348,723.353394 
	C536.798096,731.911072 540.689209,740.183472 544.780090,748.355835 
	C546.123962,751.040466 545.697083,752.564331 542.954834,753.832275 
	C537.071838,756.552307 531.260010,759.428833 525.455383,762.314453 
	C523.072266,763.499146 521.457642,763.210693 520.282288,760.597412 
	C519.161011,758.104187 519.620483,756.637756 522.201660,755.497437 
	C526.285278,753.693298 530.243164,751.604736 534.152954,749.686340 
	C533.127319,743.929688 532.567993,743.595764 527.846680,745.688354 
	C525.567871,746.698364 523.277832,747.694763 521.062805,748.833374 
	C518.820068,749.986084 517.374512,749.511047 516.283630,747.199158 
	C515.242493,744.992737 515.425171,743.453125 517.828979,742.374146 
	C520.557007,741.149597 523.189941,739.714233 525.908203,738.466309 
	C528.146729,737.438477 528.817444,736.055664 527.640564,733.728271 
	C526.496338,731.465454 525.092346,731.004150 522.834473,732.178528 
	C519.445129,733.941589 515.945007,735.490173 512.514954,737.176575 
	C510.448639,738.192505 508.855652,738.304749 507.669250,735.796814 
	C506.576477,733.486816 506.373993,731.747864 509.046661,730.493103 
	C515.365784,727.526489 521.672607,724.532593 527.947998,721.475037 
	C530.071167,720.440552 531.419128,721.124512 532.631348,723.353394 
z"/>
<path fill="#000000" opacity="1.000000" stroke="none" 
	d="
M548.292969,726.297729 
	C551.488159,724.203186 554.379028,722.314941 557.248291,720.440796 
	C556.506165,718.092773 555.372864,716.532776 553.580261,714.795044 
	C549.573914,717.313477 545.486206,719.783020 541.509338,722.419678 
	C539.043823,724.054321 537.410950,723.708984 535.816772,721.151794 
	C534.180176,718.526611 535.414246,717.288208 537.501282,715.989990 
	C543.149170,712.476807 548.742371,708.875793 554.358154,705.311096 
	C556.004700,704.265930 557.615479,703.463501 559.030273,705.677002 
	C564.825806,714.744751 570.635376,723.803589 576.774902,733.388855 
	C569.515381,737.996094 562.813965,742.246887 556.115356,746.501831 
	C554.199463,747.718811 553.039368,746.721619 552.033203,745.156189 
	C550.853821,743.321167 550.145935,741.534546 552.472656,740.026245 
	C555.263245,738.217407 557.945740,736.183716 560.903931,734.705261 
	C565.326416,732.494934 564.808594,730.097900 561.390076,726.853027 
	C558.387512,728.681274 555.267944,730.489929 552.246643,732.450134 
	C549.977051,733.922729 548.073181,735.061768 546.030334,731.936890 
	C544.079712,728.953186 545.885498,727.784485 548.292969,726.297729 
z"/>
<path fill="#000000" opacity="1.000000" stroke="none" 
	d="
M633.428345,663.625732 
	C629.186829,654.301575 620.297241,652.311890 614.809998,659.082642 
	C612.327698,662.145569 611.643188,664.814148 615.708862,667.208374 
	C618.894409,669.084412 620.347656,671.393860 617.098389,674.724365 
	C615.350220,676.516296 613.894043,676.923035 612.050964,675.122253 
	C611.813843,674.890564 611.542297,674.692322 611.276733,674.491821 
	C601.972839,667.468933 601.424561,662.998535 608.734619,653.746704 
	C614.333069,646.661194 622.647156,644.270508 630.480103,647.493835 
	C638.267090,650.698364 643.020447,658.296570 642.065369,666.013062 
	C640.941467,675.094604 633.570496,683.243958 625.426147,684.363281 
	C624.802429,684.449036 624.142212,684.268921 623.342590,684.198669 
	C621.954346,680.065430 621.957214,677.163147 626.944702,675.250061 
	C631.644592,673.447205 633.856506,669.226013 633.428345,663.625732 
z"/>
<path fill="#000000" opacity="1.000000" stroke="none" 
	d="
M154.976608,393.935364 
	C156.110977,390.949219 157.182266,388.333893 158.108154,385.668060 
	C159.000031,383.100128 160.436111,382.522217 163.081482,383.379852 
	C166.114502,384.363190 165.876373,386.132812 165.027603,388.391815 
	C162.690720,394.611450 160.284180,400.806885 158.076004,407.072083 
	C157.036438,410.021667 155.393005,410.298767 152.725433,409.261200 
	C144.366608,406.009979 135.973297,402.841919 127.535698,399.801575 
	C124.399780,398.671570 123.372528,397.108978 124.718674,393.833160 
	C127.053413,388.151611 129.166107,382.374390 131.214066,376.581451 
	C132.194626,373.807800 133.720245,372.962433 136.507141,374.024567 
	C139.245453,375.068115 139.310074,376.703735 138.323792,379.125854 
	C136.640686,383.259308 135.225998,387.502075 133.751114,391.554474 
	C135.086121,393.515869 136.907379,393.746338 138.851700,394.175934 
	C141.177704,391.683289 141.580750,388.273560 142.976868,385.341003 
	C144.023026,383.143463 143.729141,379.113220 148.326813,380.748993 
	C152.676376,382.296509 150.684967,385.046112 149.821045,387.602753 
	C148.817505,390.572571 147.750916,393.521057 146.745514,396.382507 
	C152.075424,400.244415 152.529129,400.110992 154.976608,393.935364 
z"/>
<path fill="#000000" opacity="1.000000" stroke="none" 
	d="
M160.282349,599.137573 
	C158.595169,595.337219 157.133514,591.802124 155.497345,588.349854 
	C154.306839,585.837891 155.023056,584.377441 157.449570,583.195374 
	C160.228592,581.841614 161.373886,583.241089 162.357254,585.505615 
	C165.005081,591.603088 167.649216,597.703735 170.427673,603.742004 
	C171.575653,606.236877 171.087051,607.774902 168.545074,608.862000 
	C159.835083,612.586731 151.140640,616.348938 142.474197,620.173706 
	C140.053619,621.241943 138.795090,620.357300 137.845566,618.146606 
	C134.899216,611.286926 131.876114,604.460327 128.920944,597.708008 
	C133.631165,593.371094 134.954727,593.581665 137.259033,598.774719 
	C138.929642,602.539734 140.627899,606.292358 142.276031,609.966309 
	C147.452133,609.175598 148.625946,606.889404 146.263107,602.666931 
	C145.133469,600.648132 144.472885,598.372681 143.467941,596.276733 
	C142.328049,593.899353 143.245773,592.627075 145.424301,591.584595 
	C147.851608,590.423035 149.164536,591.347107 150.093414,593.529053 
	C151.265244,596.281616 152.466934,599.021484 153.647278,601.770447 
	C154.369736,603.453064 155.283707,604.669006 157.421036,603.786865 
	C159.397247,602.971313 161.924484,602.621765 160.282349,599.137573 
z"/>
<path fill="#000000" opacity="1.000000" stroke="none" 
	d="
M512.453125,246.859955 
	C508.138885,251.031647 505.110352,248.474136 501.503052,245.319962 
	C508.543182,239.267975 515.322754,233.434052 522.110291,227.609375 
	C523.753479,226.199310 525.546448,224.940247 527.050720,223.397369 
	C529.243835,221.148026 531.379395,220.967361 534.206970,222.356125 
	C536.878113,223.668076 538.466309,225.093124 538.309021,228.350342 
	C537.773132,239.449646 537.442139,250.558838 537.033203,261.657379 
	C530.528198,261.389435 529.082458,260.087769 528.793396,254.151810 
	C528.693298,252.095779 528.104858,250.656311 526.193176,249.767975 
	C523.323181,248.434357 520.457153,247.082733 517.659668,245.605850 
	C515.646179,244.542908 514.168091,245.318878 512.453125,246.859955 
M527.803955,242.385544 
	C531.538879,239.633514 528.967651,235.923706 529.941895,231.322556 
	C526.971497,234.846481 524.899841,237.304230 522.643738,239.980713 
	C523.316772,241.043716 525.376648,241.387451 527.803955,242.385544 
z"/>
<path fill="#000000" opacity="1.000000" stroke="none" 
	d="
M330.622620,202.277985 
	C333.916382,201.455490 336.812683,200.694183 339.871246,201.244293 
	C342.210358,201.665024 343.896484,202.233765 343.540131,205.343414 
	C343.198669,208.323273 342.058868,209.430664 339.073639,209.096542 
	C336.430298,208.800705 333.728363,208.905045 331.190308,209.878937 
	C329.566040,210.502213 328.147858,211.537018 328.315582,213.518478 
	C328.509766,215.812439 330.405121,215.756882 332.072021,215.863281 
	C335.555878,216.085632 339.049957,216.190125 342.524017,216.513351 
	C347.005127,216.930313 349.874390,219.376511 350.958557,223.786407 
	C351.988434,227.975449 350.584045,231.591476 347.347198,234.024139 
	C341.519928,238.403641 334.843994,240.083572 327.544830,238.695343 
	C325.061371,238.223007 323.721130,237.203079 324.312469,234.258209 
	C324.912170,231.271790 326.320709,230.242584 329.172150,231.129639 
	C332.531067,232.174576 335.788788,231.626389 338.943909,230.390961 
	C340.651825,229.722198 342.618591,228.761459 342.155212,226.544724 
	C341.763062,224.668655 339.832184,224.360367 338.098816,224.332092 
	C335.600372,224.291351 333.100220,224.347198 330.602081,224.297028 
	C324.085510,224.166199 320.214142,221.410568 319.035492,216.113754 
	C318.025452,211.574677 320.784363,206.850372 326.101440,204.150253 
	C327.432770,203.474152 328.862823,202.992523 330.622620,202.277985 
z"/>
<path fill="#000000" opacity="1.000000" stroke="none" 
	d="
M682.000000,543.870483 
	C679.321838,548.078613 676.277588,550.907288 671.160645,549.660339 
	C666.393677,548.498657 663.295044,544.675659 662.783020,539.094299 
	C662.298035,533.808472 663.526917,528.809998 665.988098,524.162476 
	C668.903748,518.656799 670.614624,518.593018 675.089905,523.727966 
	C673.299561,527.166626 670.746887,530.423706 670.425354,534.513794 
	C670.265808,536.543213 669.387634,539.335632 672.039551,540.224121 
	C674.766418,541.137756 675.601440,538.399170 676.565979,536.560181 
	C677.723816,534.352783 678.546326,531.970276 679.691589,529.755371 
	C682.322388,524.667053 686.118286,522.722046 691.034973,523.785950 
	C695.669495,524.788757 698.829773,528.625488 699.290466,533.831421 
	C699.773499,539.289612 698.779907,544.418457 696.019226,549.207703 
	C694.592896,551.682190 692.971191,551.790833 690.697083,550.305786 
	C688.566528,548.914551 687.409790,547.612366 689.297913,545.134644 
	C690.833435,543.119568 691.674622,540.742798 691.730774,538.166321 
	C691.773987,536.186157 692.182312,533.787842 689.779602,533.015137 
	C687.212036,532.189514 686.425293,534.601013 685.541504,536.303833 
	C684.316589,538.663940 683.296204,541.130249 682.000000,543.870483 
z"/>
<path fill="#000000" opacity="1.000000" stroke="none" 
	d="
M200.754456,319.832123 
	C203.559113,328.037323 194.402100,338.766235 187.788879,341.638000 
	C184.808594,342.932159 183.782928,341.930206 182.243835,336.581879 
	C185.177078,334.078400 189.164062,332.602936 191.213776,329.031525 
	C192.282944,327.168549 194.703094,324.985687 192.276047,322.902649 
	C190.294434,321.201935 188.261627,323.098206 186.530075,324.392395 
	C184.136658,326.181213 181.891388,328.213470 179.342316,329.740112 
	C172.354050,333.925476 164.750931,329.622498 164.473465,321.462189 
	C164.263947,315.300262 170.769058,305.826874 176.453629,303.641418 
	C178.972183,302.673157 179.707214,304.331970 180.694077,305.844513 
	C181.683868,307.361603 182.222626,308.849152 180.241364,310.083527 
	C177.679977,311.679291 175.330261,313.507935 173.825577,316.213928 
	C172.860336,317.949829 171.479675,319.727509 173.448517,321.588837 
	C175.379135,323.414093 176.841370,321.578156 178.244171,320.633270 
	C180.583633,319.057556 182.705246,317.156738 185.054520,315.597565 
	C191.789551,311.127441 196.603180,312.360870 200.754456,319.832123 
z"/>
<path fill="#000000" opacity="1.000000" stroke="none" 
	d="
M131.120514,503.742493 
	C138.390121,502.001495 143.495773,505.019623 145.664322,512.494141 
	C147.216812,517.845276 147.022125,523.318359 145.225845,528.674255 
	C144.470856,530.925415 143.214798,532.042175 140.743256,531.089844 
	C138.584610,530.258118 136.747620,529.409668 137.862320,526.437927 
	C139.094711,523.152405 139.813461,519.779419 138.812363,516.214355 
	C138.299240,514.386963 137.892838,512.261658 135.750488,512.215698 
	C133.214722,512.161133 132.860687,514.614685 132.472290,516.520996 
	C131.910233,519.279907 131.765167,522.129272 131.121475,524.864624 
	C130.154861,528.972229 128.072983,532.331360 123.517059,533.119507 
	C118.707603,533.951477 115.032936,531.944153 112.575851,527.877808 
	C109.300652,522.457520 108.985939,516.601318 110.484329,510.557770 
	C111.084297,508.137878 112.124352,506.748596 115.036888,507.538330 
	C117.721008,508.266144 118.556076,509.606323 117.826431,512.247620 
	C117.019417,515.168945 116.900635,518.163025 117.780243,521.096741 
	C118.223976,522.576721 119.106834,523.913086 120.826332,524.010620 
	C122.770882,524.121033 123.273987,522.508972 123.593452,521.051941 
	C124.302841,517.816467 124.903145,514.555725 125.483994,511.293854 
	C126.074806,507.976135 127.687149,505.424683 131.120514,503.742493 
z"/>
<path fill="#000000" opacity="1.000000" stroke="none" 
	d="
M125.073425,465.737488 
	C116.681732,467.074951 112.156853,463.938568 110.955750,456.158844 
	C110.113487,450.703339 111.489960,445.597107 114.010399,440.768219 
	C114.998825,438.874451 116.307961,437.958282 118.411636,439.363953 
	C120.162964,440.534210 122.564095,441.197662 120.879585,444.218079 
	C119.338341,446.981598 118.104599,449.885071 118.310303,453.204437 
	C118.421104,454.992432 118.783211,456.678375 120.682770,457.140930 
	C122.492714,457.581635 123.342751,456.023224 123.992500,454.688293 
	C125.373917,451.850159 126.563263,448.918762 127.933372,446.074799 
	C129.974274,441.838501 133.004379,439.066223 138.110733,439.704712 
	C143.340790,440.358643 146.080688,443.877777 147.019836,448.551849 
	C148.308334,454.964508 146.907867,461.107300 143.640594,466.792572 
	C142.234573,469.239136 140.544312,469.920959 137.920929,468.254425 
	C135.500671,466.716980 135.318558,465.193756 136.896927,462.966736 
	C139.077957,459.889282 140.080734,456.416473 139.839966,452.613495 
	C139.742737,451.077606 139.652710,449.444275 137.893784,448.942108 
	C135.777740,448.337952 134.982559,450.002167 134.242920,451.518188 
	C132.214096,455.676849 131.278442,460.408630 127.862549,463.832733 
	C127.173180,464.523804 126.249054,464.980652 125.073425,465.737488 
z"/>
<path fill="#000000" opacity="1.000000" stroke="none" 
	d="
M667.295044,511.076050 
	C664.842957,495.502106 672.861816,485.049042 686.293030,485.722626 
	C693.050476,486.061523 699.668579,491.049805 702.007935,497.791534 
	C704.626587,505.338287 703.081482,512.210571 698.186035,518.384888 
	C697.137756,519.706970 695.672058,520.291992 694.384094,518.745117 
	C693.000183,517.083069 690.368103,515.596924 692.461060,512.875854 
	C694.057190,510.800751 694.874878,508.561035 694.968140,505.984985 
	C695.134277,501.396240 693.591675,497.716461 689.096191,496.000763 
	C684.754578,494.343719 680.415955,494.655396 677.055603,498.109070 
	C673.870605,501.382446 672.994812,505.791840 675.268921,509.637054 
	C677.983459,514.226929 676.452942,516.569092 672.381897,518.660645 
	C669.397888,517.130066 668.448181,514.281738 667.295044,511.076050 
z"/>
<path fill="#000000" opacity="1.000000" stroke="none" 
	d="
M402.189392,192.922501 
	C407.827820,192.981918 412.992218,193.012772 418.155334,193.111206 
	C420.726685,193.160217 422.767303,193.879150 422.729218,197.069153 
	C422.690247,200.334793 420.476562,200.768646 417.986145,200.830627 
	C415.155334,200.901077 412.322479,200.913071 409.490540,200.907654 
	C406.628876,200.902176 404.221222,201.059891 404.267456,205.070190 
	C404.312012,208.935059 406.705811,208.785339 409.296234,208.779190 
	C411.628540,208.773666 413.961609,208.835236 416.293091,208.795349 
	C418.905853,208.750687 420.307159,209.741547 420.316803,212.590042 
	C420.326569,215.474930 418.900146,216.430496 416.282623,216.295593 
	C415.452148,216.252792 414.617065,216.300293 413.784088,216.304657 
	C405.021515,216.350662 404.898102,216.342896 404.360626,225.002167 
	C404.165863,228.140244 402.657959,228.971497 399.920563,228.987396 
	C397.052917,229.004028 394.982208,228.296799 395.010101,224.879684 
	C395.084808,215.717453 395.175842,206.554749 395.147827,197.392578 
	C395.132874,192.499893 398.496918,192.894821 402.189392,192.922501 
z"/>
<path fill="#000000" opacity="1.000000" stroke="none" 
	d="
M122.556236,485.175171 
	C119.313339,482.763916 116.282928,480.381805 112.958740,478.525879 
	C108.518341,476.046844 108.150520,472.733978 110.001076,468.236755 
	C121.632950,472.518280 129.668228,484.904633 143.639740,481.421783 
	C145.164490,489.897675 144.815796,490.521179 137.863739,490.311768 
	C133.704849,490.186462 130.090393,491.087311 126.559929,493.346558 
	C121.165337,496.798706 115.530762,499.875854 109.826462,503.212616 
	C107.711281,495.884674 108.270294,494.462524 113.484245,491.279816 
	C116.572212,489.394806 120.229561,488.388885 122.556236,485.175171 
z"/>
<path fill="#000000" opacity="1.000000" stroke="none" 
	d="
M428.254852,193.720139 
	C436.617065,194.684067 444.531891,195.738632 452.469421,196.578583 
	C455.252930,196.873138 456.293304,198.068314 455.936371,200.789169 
	C455.579773,203.507324 454.100372,204.363983 451.462952,204.167816 
	C443.959320,203.609741 444.016052,203.674683 443.341034,211.050507 
	C442.932190,215.518173 442.424744,219.984818 441.737152,224.417099 
	C440.649719,231.426575 440.570007,231.414200 432.883942,229.716400 
	C431.909729,223.845490 433.907471,218.036530 434.074188,212.145935 
	C434.102081,211.159897 434.482391,210.188950 434.587219,209.199112 
	C435.284485,202.616928 435.061554,202.320770 428.356873,201.327988 
	C426.682678,201.080078 424.734650,201.098541 424.651123,198.866333 
	C424.566162,196.594696 424.352478,193.943085 428.254852,193.720139 
z"/>
<path fill="#000000" opacity="1.000000" stroke="none" 
	d="
M126.996323,405.027832 
	C129.138641,407.298126 127.761772,409.445526 127.212677,411.373016 
	C126.236465,414.799835 126.828514,416.460846 130.691483,417.188293 
	C136.891632,418.355835 142.957153,420.221588 149.113068,421.647675 
	C152.055054,422.329224 153.418060,423.479736 152.509995,426.840332 
	C151.668686,429.953888 150.631058,431.480469 147.035858,430.449554 
	C141.286621,428.800873 135.303589,427.916992 129.634750,426.054352 
	C124.998253,424.530884 123.239075,426.092621 122.451218,430.425812 
	C122.073677,432.502350 122.212769,435.422272 118.496529,434.835815 
	C115.096748,434.299255 114.052116,432.566376 114.919952,429.272156 
	C116.782578,422.201782 118.669609,415.130646 120.230186,407.990662 
	C121.125572,403.894012 123.177063,403.214935 126.996323,405.027832 
z"/>
<path fill="#000000" opacity="1.000000" stroke="none" 
	d="
M675.925842,458.173126 
	C673.835144,458.412567 672.154663,458.458618 670.547302,458.825500 
	C667.561951,459.506836 665.350159,459.386505 664.801697,455.563110 
	C664.296326,452.040192 665.420288,450.257294 669.050964,449.860870 
	C674.657043,449.248749 680.233337,448.369263 685.832581,447.688019 
	C691.477356,447.001282 692.365234,446.187286 691.399597,440.845367 
	C690.848145,437.794647 690.738342,435.718933 694.532410,435.125763 
	C698.498901,434.505676 698.446045,437.419556 698.796265,439.736389 
	C699.935852,447.274841 700.857300,454.846008 701.923889,462.395935 
	C702.243896,464.661224 701.410095,465.933990 699.137573,466.169617 
	C697.089905,466.381897 695.390991,466.426727 694.482971,463.753113 
	C693.643494,461.281433 695.246216,457.374878 691.640198,456.528076 
	C689.200073,455.955017 686.403198,456.852631 683.772827,457.153107 
	C681.300110,457.435547 678.836609,457.797546 675.925842,458.173126 
z"/>
<path fill="#000000" opacity="1.000000" stroke="none" 
	d="
M268.064331,226.716248 
	C275.604431,223.155548 282.839783,219.785873 290.036530,216.335602 
	C292.394806,215.205017 294.172638,214.674576 295.616455,217.809967 
	C296.998291,220.810669 295.851105,222.049011 293.313263,223.115967 
	C291.497284,223.879456 289.780975,224.880066 287.350677,226.115143 
	C290.666504,233.214737 293.761017,240.143143 297.131836,246.934418 
	C298.910645,250.518311 297.999603,252.351944 294.341766,253.682693 
	C291.741791,254.628586 290.405487,254.180557 289.274261,251.643021 
	C286.702118,245.873322 283.672668,240.299713 281.271332,234.464401 
	C279.667908,230.567993 277.714355,229.768158 274.211639,232.038834 
	C272.843323,232.925858 271.198883,233.387024 269.431885,234.149277 
	C267.986908,231.803894 265.151947,230.062851 268.064331,226.716248 
z"/>
<path fill="#000000" opacity="1.000000" stroke="none" 
	d="
M598.598999,683.401794 
	C597.034790,681.884949 595.750427,680.586182 594.405212,679.353760 
	C591.951843,677.105896 589.872986,675.306335 593.402527,671.774048 
	C596.740662,668.433289 598.363342,670.408081 600.609131,672.609924 
	C606.768921,678.649292 612.947083,684.673035 619.247681,690.564209 
	C621.580322,692.745300 621.742188,694.377625 619.367493,696.686584 
	C617.119629,698.872314 615.410828,699.825073 612.800110,697.146484 
	C608.286377,692.515259 603.514832,688.135193 598.598999,683.401794 
z"/>
<path fill="#000000" opacity="1.000000" stroke="none" 
	d="
M702.324707,473.769135 
	C703.143005,478.606812 701.589722,480.401062 696.833923,480.374756 
	C688.550232,480.328918 680.260925,480.918915 671.977722,481.318420 
	C668.921753,481.465851 666.940186,480.875122 666.737732,477.144470 
	C666.543335,473.561584 668.242920,472.398132 671.321167,472.240356 
	C680.427368,471.773590 689.533813,471.311920 698.642151,470.890137 
	C700.394958,470.808990 702.015259,471.127075 702.324707,473.769135 
z"/>
<path fill="#000000" opacity="1.000000" stroke="none" 
	d="
M242.069458,276.963348 
	C243.774918,279.925812 248.161591,282.052612 243.309662,285.761658 
	C240.589279,287.841248 239.062439,287.956451 236.891220,285.068970 
	C231.492279,277.888977 225.845490,270.890320 220.142242,263.946960 
	C218.148941,261.520233 217.953018,259.820831 220.658524,257.809631 
	C223.175446,255.938644 225.004272,255.334167 227.253845,258.317810 
	C231.959991,264.559631 236.970764,270.571777 242.069458,276.963348 
z"/>
<path fill="#000000" opacity="1.000000" stroke="none" 
	d="
M316.704193,225.924927 
	C320.624084,231.081436 320.497925,231.576385 315.093170,233.639496 
	C313.235321,234.348679 311.319366,234.925980 309.514496,235.748886 
	C306.892670,236.944244 305.581238,235.941742 304.593750,233.471069 
	C303.562103,230.890015 304.770203,229.757401 306.921661,229.016312 
	C310.048096,227.939423 313.188507,226.903168 316.704193,225.924927 
z"/>
<path fill="#000000" opacity="1.000000" stroke="none" 
	d="
M667.196045,567.218323 
	C669.554199,565.058044 671.568420,566.376770 673.167786,567.572693 
	C674.831665,568.816956 673.364868,570.641235 673.007690,572.132690 
	C672.473022,574.364746 671.654236,576.530273 670.925537,578.713928 
	C670.229004,580.801086 668.878845,581.507996 666.718323,580.800720 
	C664.532410,580.085266 663.241455,578.914978 664.037109,576.447632 
	C664.996216,573.473328 666.004211,570.514832 667.196045,567.218323 
z"/>
<path fill="#000000" opacity="1.000000" stroke="none" 
	d="
M205.070679,299.833160 
	C203.370667,297.818878 204.284332,296.531433 205.587280,295.260590 
	C207.495728,293.399170 209.434570,291.560028 211.222198,289.586212 
	C212.988602,287.635834 214.468719,287.849579 216.251541,289.600616 
	C218.061584,291.378418 218.175827,292.885803 216.289902,294.640472 
	C214.338821,296.455780 212.400177,298.302826 210.634979,300.294556 
	C208.683426,302.496490 207.013458,302.195709 205.070679,299.833160 
z"/>
</svg>